<?xml version="1.0" encoding="utf-8"?>
<!-- Generator: Adobe Illustrator 26.3.1, SVG Export Plug-In . SVG Version: 6.00 Build 0)  -->
<svg version="1.1" id="Layer_1" xmlns="http://www.w3.org/2000/svg" xmlns:xlink="http://www.w3.org/1999/xlink" x="0px" y="0px"
	 viewBox="0 0 29 29" style="enable-background:new 0 0 29 29;" xml:space="preserve">
<style type="text/css">
	.st0{fill:#FFFFFF;}
</style>
<path class="st0" d="M14.5,27.1C7.6,27.1,2,21.5,2,14.6S7.6,2.1,14.5,2.1S27,7.7,27,14.6S21.4,27.1,14.5,27.1z M14.5,4.1
	C8.7,4.1,4,8.8,4,14.6s4.7,10.5,10.5,10.5S25,20.4,25,14.6S20.3,4.1,14.5,4.1z"/>
<path class="st0" d="M14.5,21.6c-0.6,0-1-0.4-1-1v-12c0-0.6,0.4-1,1-1s1,0.4,1,1v12C15.5,21.1,15.1,21.6,14.5,21.6z"/>
<path class="st0" d="M20.5,15.6h-12c-0.6,0-1-0.4-1-1s0.4-1,1-1h12c0.6,0,1,0.4,1,1S21.1,15.6,20.5,15.6z"/>
</svg>
