<svg xmlns="http://www.w3.org/2000/svg" viewBox="0 0 48 48"><g data-name="cart 4"><path fill="#f4f4f6" d="M37.86 23.84a5 5 0 0 0 4.7-8.33l-10.05-10a5 5 0 0 0-8.33 4.7L21 7A9.9 9.9 0 0 0 7 21l3.16 3.16a5 5 0 0 0-4.7 8.33l10 10a5 5 0 0 0 8.33-4.7L27 41a9.9 9.9 0 1 0 14-14Z"/><path fill="#e2dff4" d="M5.02 39h2v1h-2zM8.02 41h1v2h-1zM44 10.5A1.5 1.5 0 1 1 42.52 9 1.5 1.5 0 0 1 44 10.5Zm-2 0a.5.5 0 1 0 .5-.5.5.5 0 0 0-.5.5Z"/><circle cx="26.52" cy="44.5" r="1.5" fill="#f4f4f6"/><circle cx="21.52" cy="3.5" r="1.5" fill="#f4f4f6"/><path fill="#e2dff4" d="M3.48 23.5A1.5 1.5 0 1 1 5 22a1.5 1.5 0 0 1-1.52 1.5Zm0-2A.5.5 0 1 0 4 22a.5.5 0 0 0-.52-.5ZM42.02 26h1v2h-1zM42.02 31h1v2h-1zM44.02 29h2v1h-2z"/><path fill="#d6dbe1" d="m17.06 30-2.89-18.31a2 2 0 0 0-2-1.69h-.31a2 2 0 0 0-.69.25 2 2 0 0 1 1 1.42L15.06 30Z"/><path fill="#322f56" d="M34 31H15a1 1 0 0 1-1-.84L11.15 12H8v-2h4a1 1 0 0 1 1 .84L15.85 29H33.3l4.28-12H32v-2h7a1 1 0 0 1 .82.42 1 1 0 0 1 .12.92l-5 14A1 1 0 0 1 34 31zm-15 7a3 3 0 1 1 3-3 3 3 0 0 1-3 3zm0-4a1 1 0 1 0 1 1 1 1 0 0 0-1-1zm10 4a3 3 0 1 1 3-3 3 3 0 0 1-3 3zm0-4a1 1 0 1 0 1 1 1 1 0 0 0-1-1z"/><path fill="#66f" d="M21 18a1 1 0 0 1-.71-.29 1.15 1.15 0 0 1-.21-.33.94.94 0 0 1 0-.76 1.15 1.15 0 0 1 .21-.33 1 1 0 0 1 1.42 0 1 1 0 0 1 .21.33.84.84 0 0 1 .08.38 1 1 0 0 1-.29.71 1.15 1.15 0 0 1-.33.21.84.84 0 0 1-.38.08zm6 0a.84.84 0 0 1-.38-.08 1.15 1.15 0 0 1-.33-.21 1 1 0 0 1-.21-1.09 1.15 1.15 0 0 1 .21-.33 1 1 0 0 1 1.42 0 1.15 1.15 0 0 1 .21.33 1 1 0 0 1-.21 1.09 1.15 1.15 0 0 1-.33.21.84.84 0 0 1-.38.08zm-3 3a5 5 0 0 0-4.33 2.5 1 1 0 0 0 1.73 1 3 3 0 0 1 5.2 0 1 1 0 0 0 1.73-1A5 5 0 0 0 24 21z"/></g></svg>